<svg width="23" height="26" viewBox="0 0 23 26" fill="none" xmlns="http://www.w3.org/2000/svg">
<g id="envelope-fill">
<path id="Vector" d="M7.16769 7.91693C5.54049 7.91693 4.26691 8.33455 4.04211 9.92299C3.97011 10.4316 4.1285 10.9321 4.4925 11.2937C4.6733 11.4732 4.8645 11.6869 5.1173 11.9031C5.7517 12.4466 6.5605 13.0576 7.3173 13.6044C9.3997 15.1076 11.0437 16.0419 12.0173 16.0419C12.9909 16.0419 14.6349 15.1076 16.7173 13.6044C17.4749 13.0576 18.2837 12.4458 18.9173 11.9031C19.1701 11.6869 19.3613 11.4741 19.5421 11.2937C19.9061 10.9321 20.0645 10.4316 19.9925 9.92299C19.7677 8.33455 18.4941 7.91693 16.8669 7.91693H7.16769ZM4.0173 12.9187V17.6669C4.0173 19.4617 5.4501 20.9169 7.2173 20.9169H16.8173C18.5845 20.9169 20.0173 19.4617 20.0173 17.6669V12.9187C19.3613 13.5516 18.6285 14.2049 17.5925 14.9499C15.3237 16.5814 13.2861 17.6669 12.0173 17.6669C10.7485 17.6669 8.71091 16.5814 6.44211 14.9499C5.40531 14.2049 4.6733 13.5516 4.0173 12.9187Z" fill="#E0E0E0"/>
</g>
</svg>
