<svg width="15" height="17" viewBox="0 0 15 17" fill="none" xmlns="http://www.w3.org/2000/svg">
<g id="Calling">
<g id="Iconly/Bold/Calling">
<g id="Group">
<g id="Calling_2">
<path id="Fill-1" d="M9.01144 3.88774C8.71392 3.82547 8.44067 4.0406 8.38403 4.36967C8.32738 4.69873 8.51785 5.02002 8.80729 5.08441C9.6787 5.2769 10.3516 6.04119 10.5221 7.03193C10.5707 7.31712 10.7922 7.52517 11.0474 7.52517C11.0817 7.52517 11.1159 7.52163 11.1508 7.51456C11.4402 7.44874 11.6307 7.12817 11.574 6.79839C11.3194 5.31865 10.3142 4.17576 9.01144 3.88774Z" fill="white"/>
<path id="Fill-3" d="M8.97231 1.42194C8.83289 1.39929 8.69284 1.446 8.58142 1.54649C8.46689 1.64839 8.39531 1.79559 8.37975 1.96047C8.34676 2.29379 8.55902 2.59526 8.85281 2.63276C10.8788 2.88894 12.4536 4.67722 12.6814 6.97999C12.7119 7.28853 12.9404 7.52136 13.213 7.52136C13.2335 7.52136 13.2534 7.51994 13.274 7.51711C13.4165 7.49942 13.5435 7.41945 13.6331 7.29207C13.7221 7.16469 13.7626 7.00617 13.7464 6.84411C13.4626 3.97097 11.5 1.7411 8.97231 1.42194Z" fill="white"/>
</g>
</g>
<g id="Call">
<path id="Stroke-1" fill-rule="evenodd" clip-rule="evenodd" d="M6.89484 9.1865C9.38802 12.0106 9.95361 8.74343 11.541 10.5408C13.0714 12.2743 13.951 12.6216 12.012 14.818C11.7691 15.0392 10.226 17.6999 4.80288 11.5569C-0.620924 5.41316 1.72599 3.66291 1.92123 3.3878C3.86492 1.18536 4.16616 2.18778 5.69656 3.92131C7.28398 5.71944 4.40166 6.36239 6.89484 9.1865Z" fill="white"/>
</g>
</g>
</g>
</svg>
