<svg width="15" height="14" viewBox="0 0 15 14" fill="none" xmlns="http://www.w3.org/2000/svg">
<path id="Vector" d="M7.51168 0C6.5374 0 5.4388 2.765 5.29789 6.3H9.72547C9.58456 2.7657 8.48596 0 7.51168 0ZM5.13362 0.35C2.35545 1.2103 0.263727 3.5707 0 6.3H3.79088C3.87452 3.8927 4.34244 1.7577 5.13362 0.35ZM9.88974 0.35C10.6809 1.7577 11.1488 3.8927 11.2325 6.3H15C14.7272 3.5385 12.695 1.2257 9.88974 0.35ZM0.0233631 7.7C0.294625 10.5049 2.39087 12.803 5.15698 13.65C4.36655 12.2423 3.87452 10.1073 3.79088 7.7H0.0233631ZM5.29789 7.7C5.4388 11.2343 6.5374 14 7.51168 14C8.48596 14 9.58456 11.235 9.72547 7.7H5.29789ZM11.2325 7.7C11.1488 10.1073 10.6568 12.2423 9.86638 13.65C12.7078 12.7519 14.7227 10.416 15 7.7H11.2325Z" fill="#E0E0E0"/>
</svg>
