<svg width="232" height="66" viewBox="0 0 232 66" fill="none" xmlns="http://www.w3.org/2000/svg">
<path d="M66.7675 46.7908C66.4024 45.9869 66.0601 45.1419 65.695 44.4205L64.0065 40.9784L63.938 40.9166C58.9181 31.0232 53.5558 20.965 47.8741 11.0716L47.6459 10.6594C47.0754 9.69068 46.505 8.6189 45.9117 7.62956C45.1815 6.45473 44.4742 5.19745 43.3104 4.002C42.1761 2.75117 40.7485 1.7434 39.1307 1.05142C37.5128 0.359432 35.7451 0.000488281 33.955 0.000488281C32.165 0.000488281 30.3972 0.359432 28.7794 1.05142C27.1615 1.7434 25.7339 2.75117 24.5996 4.002C23.5271 5.19745 22.7285 6.45473 21.9983 7.62956C21.4279 8.70134 20.8574 9.75251 20.2641 10.7212L20.0359 11.1335C14.4455 21.0268 8.99197 31.0851 3.97198 40.9784L3.83507 41.1021C3.33307 42.1739 2.7398 43.2869 2.16935 44.4823C1.80426 45.2037 1.43916 45.9869 1.07407 46.8526C0.0884056 49.1194 -0.22635 51.5791 0.16083 53.9892C0.548009 56.3993 1.62376 58.6767 3.28206 60.597C4.94036 62.5172 7.12397 64.014 9.6177 64.9398C12.1114 65.8656 14.8292 66.1885 17.5031 65.8767C20.0667 65.5719 22.5352 64.8006 24.7593 63.6095C27.7257 62.1049 30.5779 59.9201 33.7725 56.7666C36.967 59.9201 39.8877 62.1049 42.7856 63.6301C45.5724 65.1076 48.7283 65.9231 51.9585 66.0004C55.6992 66.0144 59.3192 64.8055 62.1502 62.5969C64.9812 60.3883 66.8319 57.329 67.3608 53.9841C67.9719 51.5803 67.7651 49.0659 66.7675 46.7702V46.7908ZM34.0006 50.2122C30.0759 45.6778 27.5203 41.5143 26.6532 37.9486C26.294 36.6273 26.2165 35.2563 26.425 33.9088C26.5848 32.8576 27.0183 31.9301 27.6116 31.1469C28.9807 29.3537 31.3766 28.2407 34.0006 28.2407C35.2468 28.2063 36.483 28.452 37.5981 28.9556C38.7132 29.4593 39.6725 30.2051 40.3897 31.1263C40.983 31.9507 41.4165 32.8576 41.5535 33.9088C41.7816 35.1042 41.6904 36.4852 41.3253 37.9486C40.4582 41.4525 37.9025 45.6572 34.0006 50.2122ZM63.071 53.2627C62.8117 54.9609 62.0643 56.5682 60.9033 57.9243C59.7423 59.2804 58.2081 60.338 56.4537 60.9919C54.7195 61.6514 52.8028 61.8369 50.9317 61.6514C49.1063 61.4453 47.2808 60.9094 45.4097 59.9201C42.303 58.1856 39.5095 56.0307 37.1267 53.5306C41.9185 48.1717 44.8164 43.2869 45.9117 38.9379C46.4365 36.8768 46.505 35.0218 46.2768 33.3111C45.9919 31.6896 45.3225 30.1428 44.3144 28.7766C43.1635 27.2952 41.6273 26.0919 39.8408 25.2725C38.0543 24.4531 36.0723 24.0426 34.0691 24.0773C29.8477 24.0773 26.0828 25.8498 23.8009 28.756C22.7738 30.1187 22.1099 31.6778 21.8614 33.3111C21.5648 35.0424 21.6332 36.9592 22.2265 38.9379C23.3218 43.2869 26.2881 48.2335 31.0115 53.5718C28.6691 56.1197 25.8691 58.2936 22.7285 60.0025C20.8346 60.9919 19.0319 61.5071 17.2065 61.7132C14.3677 62.0417 11.5 61.3448 9.22691 59.774C6.95379 58.2032 5.45893 55.8854 5.06725 53.3245C4.83907 51.6756 4.99879 50.0267 5.72897 48.1717C5.95716 47.5122 6.29943 46.8526 6.66452 46.0694C7.16652 44.9976 7.75979 43.8846 8.33024 42.7716L8.42152 42.6273C13.3502 32.7958 18.7353 22.7582 24.3258 12.9266L24.5539 12.5144C25.1244 11.5251 25.6948 10.4739 26.2881 9.48457C26.8814 8.4334 27.5203 7.42345 28.3417 6.599C29.0528 5.83231 29.9413 5.21573 30.9446 4.79268C31.9479 4.36962 33.0417 4.15038 34.149 4.15038C35.2562 4.15038 36.35 4.36962 37.3534 4.79268C38.3567 5.21573 39.2451 5.83231 39.9562 6.599C40.7548 7.42345 41.4165 8.4334 42.0098 9.48457C42.5803 10.4739 43.1507 11.5457 43.744 12.5144L43.9722 12.9266C49.5398 22.7582 54.9249 32.7958 59.9449 42.6273L60.0133 42.6891C60.6066 43.7609 61.1086 44.9564 61.6791 45.9869C62.0441 46.7908 62.4092 47.4297 62.6374 48.1099C63.071 49.9649 63.2991 51.6138 63.071 53.2627ZM94.8338 49.7588C93.1144 49.7815 91.4113 49.4542 89.851 48.8013C88.2907 48.1483 86.9132 47.1864 85.8206 45.9869C83.3655 43.4311 82.0626 40.1356 82.1697 36.7531C82.1322 33.2971 83.4772 29.945 85.9576 27.3132C87.1048 26.0984 88.533 25.1256 90.1415 24.4633C91.75 23.8009 93.4997 23.4651 95.2673 23.4795C96.9306 23.4384 98.5782 23.7801 100.055 24.4723C101.532 25.1646 102.79 26.1847 103.71 27.4369L103.938 24.2009H110.601V49.0992H103.915L103.687 45.4717C102.738 46.8086 101.427 47.9043 99.8774 48.6546C98.3279 49.405 96.5917 49.785 94.8338 49.7588ZM96.568 43.8228C97.8914 43.8228 99.0552 43.493 100.15 42.8953C101.154 42.2357 101.976 41.37 102.615 40.3189C103.185 39.2677 103.482 38.0104 103.482 36.6089C103.571 35.3915 103.309 34.1742 102.721 33.0759C102.133 31.9777 101.239 31.036 100.128 30.3431C99.0596 29.742 97.8264 29.4233 96.568 29.4233C95.3096 29.4233 94.0764 29.742 93.0084 30.3431C92.0044 31.0026 91.1829 31.8683 90.544 32.9195C89.9406 34.0787 89.6437 35.3488 89.6769 36.6295C89.588 37.8468 89.8503 39.0641 90.4382 40.1624C91.0262 41.2607 91.9196 42.2023 93.0312 42.8953C94.1036 43.493 95.2673 43.8228 96.568 43.8228ZM122.01 17.4817C122.01 18.2031 121.873 18.8626 121.508 19.3985C121.143 19.9138 120.641 20.3879 119.979 20.7176C119.318 21.0474 118.61 21.1711 117.88 21.1711C117.15 21.1711 116.42 21.0474 115.758 20.7176C115.132 20.4029 114.606 19.9488 114.229 19.3985C113.876 18.8114 113.703 18.1496 113.727 17.4817C113.727 16.7397 113.887 16.0801 114.229 15.5649C114.594 14.9465 115.119 14.5755 115.758 14.2457C116.42 13.916 117.127 13.7717 117.88 13.7717C118.606 13.7566 119.325 13.912 119.965 14.2226C120.605 14.5333 121.144 14.9887 121.531 15.5442C121.863 16.1452 122.028 16.8103 122.01 17.4817ZM114.252 49.0168V24.1597H121.508V49.058H114.229L114.252 49.0168ZM140.904 30.6728V30.7553C140.561 30.611 140.105 30.5492 139.763 30.4873C139.306 30.4049 138.941 30.4049 138.508 30.4049C136.477 30.4049 134.948 30.9408 133.944 32.0538C132.849 33.1874 132.347 34.7745 132.347 36.815V49.0374H125.068V24.1391H131.754L131.982 27.9109C132.712 26.5918 133.579 25.6025 134.811 24.8605C136.037 24.1395 137.48 23.7795 138.941 23.8299C139.466 23.8299 139.968 23.8712 140.402 23.9536C140.63 24.0154 140.767 24.0154 140.904 24.0773V30.6728ZM143.824 49.0168V13.9366H151.081V27.3338C152.107 26.1384 153.271 25.2109 154.731 24.4895C157.043 23.4656 159.67 23.1752 162.187 23.665C164.704 24.1549 166.965 25.3965 168.605 27.1896C171.065 29.7507 172.369 33.0545 172.256 36.444C172.293 39.9 170.948 43.2521 168.468 45.8839C167.321 47.0987 165.892 48.0715 164.284 48.7338C162.675 49.3962 160.926 49.732 159.158 49.7176C157.495 49.7587 155.847 49.417 154.37 48.7248C152.894 48.0325 151.636 47.0123 150.715 45.7602L150.487 48.9962L143.824 49.058V49.0168ZM157.858 43.8228C159.158 43.8228 160.322 43.493 161.417 42.8953C162.421 42.2357 163.243 41.37 163.882 40.3189C164.475 39.2677 164.749 38.0104 164.749 36.6089C164.749 35.2279 164.475 33.9706 163.882 32.9195C163.282 31.9059 162.44 31.0257 161.417 30.3431C160.349 29.742 159.116 29.4233 157.858 29.4233C156.599 29.4233 155.366 29.742 154.298 30.3431C153.271 31.0026 152.472 31.8683 151.811 32.9195C151.207 34.0787 150.91 35.3488 150.944 36.6295C150.855 37.8468 151.117 39.0641 151.705 40.1624C152.293 41.2607 153.186 42.2023 154.298 42.8953C155.37 43.493 156.534 43.8228 157.858 43.8228ZM174.994 49.0374V24.1391H181.68L181.908 27.3751C182.748 26.1346 183.94 25.1195 185.36 24.4346C186.78 23.7498 188.377 23.42 189.985 23.4795C191.825 23.4508 193.633 23.9126 195.183 24.8071C196.733 25.7016 197.957 26.9891 198.702 28.5087C199.501 30.0751 199.934 32.0126 199.934 34.1767V49.0992H192.655V35.0424C192.655 33.3111 192.222 31.9507 191.355 30.9408C190.487 29.9514 189.301 29.4156 187.795 29.4156C186.7 29.4156 185.741 29.6217 184.897 30.0751C184.098 30.5492 183.437 31.1469 182.935 31.992C182.427 32.8462 182.175 33.8053 182.204 34.7745V49.0374H174.994ZM203.562 49.0374V13.916H210.841V27.3132C211.827 26.1111 213.11 25.1331 214.587 24.4569C216.065 23.7807 217.696 23.4249 219.352 23.4177C221.072 23.395 222.775 23.7222 224.335 24.3752C225.895 25.0282 227.273 25.9901 228.366 27.1896C230.809 29.7505 232.103 33.0443 231.994 36.4234C232.033 39.8797 230.688 43.2325 228.206 45.8633C227.059 47.078 225.63 48.0509 224.022 48.7132C222.413 49.3756 220.664 49.7114 218.896 49.6969C217.233 49.7381 215.585 49.3964 214.108 48.7042C212.631 48.0119 211.374 46.9917 210.453 45.7396L210.248 48.9755L203.562 49.0374ZM217.664 43.8228C218.987 43.8228 220.151 43.493 221.223 42.8953C222.25 42.2357 223.049 41.37 223.711 40.3189C224.281 39.2677 224.578 38.0104 224.578 36.6089C224.667 35.3915 224.404 34.1742 223.816 33.0759C223.228 31.9777 222.335 31.036 221.223 30.3431C220.155 29.742 218.922 29.4233 217.664 29.4233C216.405 29.4233 215.172 29.742 214.104 30.3431C213.1 31.0026 212.279 31.8683 211.64 32.9195C211.003 34.0684 210.704 35.3461 210.773 36.6295C210.684 37.8468 210.946 39.0641 211.534 40.1624C212.122 41.2607 213.015 42.2023 214.127 42.8953C215.199 43.493 216.295 43.8228 217.664 43.8228Z" fill="white"/>
</svg>
