<svg width="184" height="44" viewBox="0 0 184 44" fill="none" xmlns="http://www.w3.org/2000/svg">
<g clip-path="url(#clip0_4070_46)">
<path d="M56.1309 30.1969H69.0671V26.3334H60.7287V11.7812H56.1309V30.1969Z" fill="white" fill-opacity="0.8"/>
<path d="M76.7315 27.6215C74.8871 27.6215 73.926 26.0246 73.926 23.6293C73.926 21.234 74.8871 19.6114 76.7315 19.6114C78.5758 19.6114 79.5629 21.234 79.5629 23.6293C79.5629 26.0246 78.5758 27.6215 76.7315 27.6215ZM76.7574 30.6092C81.0436 30.6092 83.849 27.5958 83.849 23.6293C83.849 19.6629 81.0436 16.6494 76.7574 16.6494C72.4973 16.6494 69.6399 19.6629 69.6399 23.6293C69.6399 27.5958 72.4973 30.6092 76.7574 30.6092Z" fill="white" fill-opacity="0.8"/>
<path d="M91.2679 34.7557C93.2421 34.7557 94.9825 34.3179 96.1515 33.2876C97.2165 32.3346 97.9179 30.8923 97.9179 28.9091V17.0098H93.8655V18.4263H93.8136C93.0343 17.3188 91.8394 16.6234 90.073 16.6234C86.774 16.6234 84.488 19.3536 84.488 23.217C84.488 27.2607 87.2675 29.4757 90.2548 29.4757C91.8654 29.4757 92.8784 28.8318 93.6577 27.9561H93.7616V29.2697C93.7616 30.8665 93.0083 31.7938 91.2159 31.7938C89.8132 31.7938 89.1118 31.2014 88.8781 30.506H84.7738C85.1894 33.2619 87.6052 34.7557 91.2679 34.7557ZM91.2419 26.3592C89.6574 26.3592 88.6183 25.0714 88.6183 23.0882C88.6183 21.0792 89.6574 19.7914 91.2419 19.7914C93.0083 19.7914 93.9435 21.2853 93.9435 23.0624C93.9435 24.9169 93.0862 26.3592 91.2419 26.3592Z" fill="white" fill-opacity="0.8"/>
<path d="M106.25 27.6215C104.406 27.6215 103.445 26.0246 103.445 23.6293C103.445 21.234 104.406 19.6114 106.25 19.6114C108.095 19.6114 109.082 21.234 109.082 23.6293C109.082 26.0246 108.095 27.6215 106.25 27.6215ZM106.276 30.6092C110.562 30.6092 113.368 27.5958 113.368 23.6293C113.368 19.6629 110.562 16.6494 106.276 16.6494C102.016 16.6494 99.1587 19.6629 99.1587 23.6293C99.1587 27.5958 102.016 30.6092 106.276 30.6092Z" fill="white" fill-opacity="0.8"/>
<path d="M114.604 30.1969H118.838V17.0097H114.604V30.1969ZM114.604 15.1811H118.838V11.7812H114.604V15.1811Z" fill="white" fill-opacity="0.8"/>
<path d="M120.676 34.5497H124.91V28.8318H124.962C125.793 29.9393 127.014 30.609 128.728 30.609C132.209 30.609 134.521 27.8788 134.521 23.6033C134.521 19.6369 132.365 16.6234 128.832 16.6234C127.014 16.6234 125.715 17.4219 124.806 18.6066H124.728V17.0098H120.676V34.5497ZM127.637 27.3637C125.819 27.3637 124.78 25.8956 124.78 23.7579C124.78 21.6201 125.715 19.9975 127.56 19.9975C129.378 19.9975 130.235 21.4913 130.235 23.7579C130.235 25.9986 129.248 27.3637 127.637 27.3637Z" fill="white" fill-opacity="0.8"/>
<path d="M141.415 30.609C144.896 30.609 147.467 29.1151 147.467 26.2304C147.467 22.8564 144.714 22.264 142.376 21.8777C140.688 21.5686 139.181 21.4398 139.181 20.5126C139.181 19.6884 139.986 19.302 141.025 19.302C142.194 19.302 142.999 19.6626 143.155 20.8474H147.052C146.844 18.246 144.818 16.6234 141.051 16.6234C137.908 16.6234 135.31 18.0658 135.31 20.8474C135.31 23.9381 137.778 24.5563 140.09 24.9426C141.857 25.2517 143.467 25.3805 143.467 26.5653C143.467 27.4152 142.662 27.8788 141.389 27.8788C139.986 27.8788 139.103 27.2349 138.947 25.9214H134.947C135.077 28.8318 137.518 30.609 141.415 30.609Z" fill="white" fill-opacity="0.8"/>
<path d="M153.219 30.5832C155.063 30.5832 156.232 29.8621 157.193 28.5743H157.271V30.1969H161.324V17.0098H157.089V24.376C157.089 25.9471 156.206 27.0289 154.752 27.0289C153.401 27.0289 152.751 26.2304 152.751 24.7881V17.0098H148.543V25.6638C148.543 28.6 150.154 30.5832 153.219 30.5832Z" fill="white" fill-opacity="0.8"/>
<path d="M163.165 30.1969H167.399V22.8049C167.399 21.2338 168.178 20.1262 169.503 20.1262C170.776 20.1262 171.373 20.9504 171.373 22.367V30.1969H175.608V22.8049C175.608 21.2338 176.361 20.1262 177.712 20.1262C178.984 20.1262 179.582 20.9504 179.582 22.367V30.1969H183.816V21.6201C183.816 18.6581 182.309 16.6234 179.296 16.6234C177.582 16.6234 176.153 17.3446 175.114 18.9415H175.062C174.387 17.5249 173.062 16.6234 171.321 16.6234C169.399 16.6234 168.126 17.5249 167.295 18.8899H167.217V17.0098H163.165V30.1969Z" fill="white" fill-opacity="0.8"/>
<path fill-rule="evenodd" clip-rule="evenodd" d="M22.3876 43.0749C34.3429 43.0749 44.0346 33.4654 44.0346 21.6115C44.0346 9.75757 34.3429 0.148071 22.3876 0.148071C10.4322 0.148071 0.740479 9.75757 0.740479 21.6115C0.740479 33.4654 10.4322 43.0749 22.3876 43.0749ZM29.1407 10.1466C29.4694 8.9889 28.3363 8.30431 27.3014 9.03532L12.8554 19.2393C11.7331 20.0321 11.9096 21.6115 13.1206 21.6115H16.9246V21.5823H24.3385L18.2976 23.6957L15.6344 33.0763C15.3057 34.2341 16.4387 34.9187 17.4737 34.1876L31.9197 23.9837C33.042 23.1909 32.8654 21.6115 31.6546 21.6115H25.8858L29.1407 10.1466Z" fill="white" fill-opacity="0.8"/>
</g>
<defs>
<clipPath id="clip0_4070_46">
<rect width="184" height="44" fill="white"/>
</clipPath>
</defs>
</svg>
