<svg width="13" height="13" viewBox="0 0 13 13" fill="none" xmlns="http://www.w3.org/2000/svg">
<g clip-path="url(#clip0_749_8606)">
<path d="M10.2675 2.06101L9.4395 1.23201C9.20783 0.999166 8.93229 0.814579 8.62881 0.688932C8.32534 0.563285 7.99996 0.499072 7.6715 0.50001H4.5C3.8372 0.500804 3.20178 0.764451 2.73311 1.23312C2.26444 1.70179 2.00079 2.33721 2 3.00001V10C2.00079 10.6628 2.26444 11.2982 2.73311 11.7669C3.20178 12.2356 3.8372 12.4992 4.5 12.5H8.5C9.1628 12.4992 9.79822 12.2356 10.2669 11.7669C10.7356 11.2982 10.9992 10.6628 11 10V3.82851C11.0008 3.5001 10.9365 3.17479 10.8108 2.87141C10.685 2.56802 10.5004 2.29257 10.2675 2.06101ZM9.5605 2.76801C9.63142 2.83867 9.69492 2.91641 9.75 3.00001H8.5V1.75001C8.58347 1.80567 8.66133 1.8693 8.7325 1.94001L9.5605 2.76801ZM10 10C10 10.3978 9.84196 10.7794 9.56066 11.0607C9.27936 11.342 8.89782 11.5 8.5 11.5H4.5C4.10218 11.5 3.72064 11.342 3.43934 11.0607C3.15804 10.7794 3 10.3978 3 10V3.00001C3 2.60219 3.15804 2.22065 3.43934 1.93935C3.72064 1.65805 4.10218 1.50001 4.5 1.50001H7.5V3.00001C7.5 3.26523 7.60536 3.51958 7.79289 3.70712C7.98043 3.89465 8.23478 4.00001 8.5 4.00001H10V10ZM8.5 5.00001C8.63261 5.00001 8.75979 5.05269 8.85355 5.14646C8.94732 5.24023 9 5.3674 9 5.50001C9 5.63262 8.94732 5.7598 8.85355 5.85356C8.75979 5.94733 8.63261 6.00001 8.5 6.00001H4.5C4.36739 6.00001 4.24021 5.94733 4.14645 5.85356C4.05268 5.7598 4 5.63262 4 5.50001C4 5.3674 4.05268 5.24023 4.14645 5.14646C4.24021 5.05269 4.36739 5.00001 4.5 5.00001H8.5ZM9 7.50001C9 7.63262 8.94732 7.7598 8.85355 7.85356C8.75979 7.94733 8.63261 8.00001 8.5 8.00001H4.5C4.36739 8.00001 4.24021 7.94733 4.14645 7.85356C4.05268 7.7598 4 7.63262 4 7.50001C4 7.3674 4.05268 7.24023 4.14645 7.14646C4.24021 7.05269 4.36739 7.00001 4.5 7.00001H8.5C8.63261 7.00001 8.75979 7.05269 8.85355 7.14646C8.94732 7.24023 9 7.3674 9 7.50001ZM8.904 9.20651C8.98172 9.31344 9.01394 9.44679 8.99361 9.57741C8.97328 9.70802 8.90205 9.82527 8.7955 9.90351C8.2889 10.2645 7.6889 10.4716 7.0675 10.5C6.70444 10.4983 6.35241 10.375 6.0675 10.15C5.9035 10.0375 5.841 10 5.7175 10C5.38321 10.0517 5.06781 10.1884 4.8015 10.397C4.69587 10.4723 4.56512 10.5036 4.43685 10.4843C4.30857 10.465 4.19282 10.3966 4.11404 10.2935C4.03526 10.1905 3.99961 10.0609 4.01462 9.932C4.02964 9.80316 4.09414 9.68519 4.1945 9.60301C4.63509 9.26098 5.16414 9.05179 5.7195 9.00001C6.05257 9.00533 6.37456 9.12045 6.6355 9.32751C6.75444 9.43449 6.90758 9.49564 7.0675 9.50001C7.47634 9.46938 7.86949 9.3297 8.206 9.09551C8.3133 9.01773 8.44709 8.98573 8.57797 9.00655C8.70885 9.02736 8.82612 9.09928 8.904 9.20651Z" fill="#374957"/>
</g>
<defs>
<clipPath id="clip0_749_8606">
<rect width="12" height="12" fill="white" transform="translate(0.5 0.5)"/>
</clipPath>
</defs>
</svg>
