<svg width="13" height="13" viewBox="0 0 13 13" fill="none" xmlns="http://www.w3.org/2000/svg">
<g clip-path="url(#clip0_749_8610)">
<path d="M10.5 0.5H2.5C1.96957 0.5 1.46086 0.710714 1.08579 1.08579C0.710714 1.46086 0.5 1.96957 0.5 2.5L0.5 8.5C0.5 9.03043 0.710714 9.53914 1.08579 9.91421C1.46086 10.2893 1.96957 10.5 2.5 10.5H3.95L6.1755 12.3815C6.26578 12.4579 6.38023 12.4998 6.4985 12.4998C6.61677 12.4998 6.73122 12.4579 6.8215 12.3815L9.05 10.5H10.5C11.0304 10.5 11.5391 10.2893 11.9142 9.91421C12.2893 9.53914 12.5 9.03043 12.5 8.5V2.5C12.5 1.96957 12.2893 1.46086 11.9142 1.08579C11.5391 0.710714 11.0304 0.5 10.5 0.5V0.5ZM11.5 8.5C11.5 8.76522 11.3946 9.01957 11.2071 9.20711C11.0196 9.39464 10.7652 9.5 10.5 9.5H9.05C8.81365 9.50007 8.58496 9.58386 8.4045 9.7365L6.5 11.345L4.5965 9.7365C4.41578 9.58364 4.1867 9.49984 3.95 9.5H2.5C2.23478 9.5 1.98043 9.39464 1.79289 9.20711C1.60536 9.01957 1.5 8.76522 1.5 8.5V2.5C1.5 2.23478 1.60536 1.98043 1.79289 1.79289C1.98043 1.60536 2.23478 1.5 2.5 1.5H10.5C10.7652 1.5 11.0196 1.60536 11.2071 1.79289C11.3946 1.98043 11.5 2.23478 11.5 2.5V8.5Z" fill="#374957"/>
<path d="M4 4.00006H6.5C6.63261 4.00006 6.75979 3.94738 6.85355 3.85361C6.94732 3.75984 7 3.63267 7 3.50006C7 3.36745 6.94732 3.24028 6.85355 3.14651C6.75979 3.05274 6.63261 3.00006 6.5 3.00006H4C3.86739 3.00006 3.74021 3.05274 3.64645 3.14651C3.55268 3.24028 3.5 3.36745 3.5 3.50006C3.5 3.63267 3.55268 3.75984 3.64645 3.85361C3.74021 3.94738 3.86739 4.00006 4 4.00006Z" fill="#374957"/>
<path d="M9 5H4C3.86739 5 3.74021 5.05268 3.64645 5.14645C3.55268 5.24021 3.5 5.36739 3.5 5.5C3.5 5.63261 3.55268 5.75978 3.64645 5.85355C3.74021 5.94732 3.86739 6 4 6H9C9.13261 6 9.25979 5.94732 9.35355 5.85355C9.44732 5.75978 9.5 5.63261 9.5 5.5C9.5 5.36739 9.44732 5.24021 9.35355 5.14645C9.25979 5.05268 9.13261 5 9 5Z" fill="#374957"/>
<path d="M9 6.99994H4C3.86739 6.99994 3.74021 7.05262 3.64645 7.14639C3.55268 7.24016 3.5 7.36733 3.5 7.49994C3.5 7.63255 3.55268 7.75973 3.64645 7.8535C3.74021 7.94727 3.86739 7.99994 4 7.99994H9C9.13261 7.99994 9.25979 7.94727 9.35355 7.8535C9.44732 7.75973 9.5 7.63255 9.5 7.49994C9.5 7.36733 9.44732 7.24016 9.35355 7.14639C9.25979 7.05262 9.13261 6.99994 9 6.99994Z" fill="#374957"/>
</g>
<defs>
<clipPath id="clip0_749_8610">
<rect width="12" height="12" fill="white" transform="translate(0.5 0.5)"/>
</clipPath>
</defs>
</svg>
