<svg width="13" height="13" viewBox="0 0 13 13" fill="none" xmlns="http://www.w3.org/2000/svg">
<g clip-path="url(#clip0_749_8613)">
<path d="M9.92409 6.265C10.2536 5.73162 10.4475 5.12562 10.4886 4.5C10.4886 4.36739 10.4359 4.24021 10.3421 4.14645C10.2484 4.05268 10.1212 4 9.98859 4C9.85598 4 9.72881 4.05268 9.63504 4.14645C9.54127 4.24021 9.48859 4.36739 9.48859 4.5C9.44802 4.93794 9.30685 5.36058 9.07609 5.735C9.04129 5.79081 9.01783 5.85293 9.00703 5.91781C8.99624 5.98269 8.99833 6.04906 9.01319 6.11313C9.02805 6.17721 9.05538 6.23772 9.09363 6.29123C9.13187 6.34474 9.18028 6.3902 9.23609 6.425C9.29191 6.4598 9.35403 6.48326 9.41891 6.49406C9.48379 6.50485 9.55016 6.50276 9.61423 6.4879C9.74363 6.45789 9.85581 6.37771 9.92609 6.265H9.92409Z" fill="#374957"/>
<path d="M4.98835 4C4.85574 4 4.72856 4.05268 4.6348 4.14645C4.54103 4.24021 4.48835 4.36739 4.48835 4.5C4.44778 4.93794 4.30661 5.36059 4.07585 5.735C4.00557 5.84772 3.98294 5.98374 4.01295 6.11314C4.04295 6.24254 4.12313 6.35472 4.23585 6.425C4.34857 6.49528 4.48459 6.51791 4.61399 6.4879C4.74339 6.4579 4.85557 6.37772 4.92585 6.265C5.25469 5.73144 5.44781 5.12544 5.48835 4.5C5.48835 4.36739 5.43567 4.24021 5.3419 4.14645C5.24813 4.05268 5.12096 4 4.98835 4Z" fill="#374957"/>
<path d="M10.25 9.79464C9.909 9.61364 9.557 9.42614 9.508 9.21364C9.485 9.11714 9.4955 8.89964 9.7655 8.47714C11.35 8.25014 12.5 6.01264 12.5 4.00014C12.514 3.60241 12.4459 3.20606 12.3001 2.83577C12.1543 2.46547 11.9338 2.12915 11.6524 1.84774C11.371 1.56633 11.0347 1.34586 10.6644 1.20003C10.2941 1.05421 9.89773 0.98617 9.5 1.00014C9.0165 0.986895 8.53724 1.09351 8.10495 1.31049C7.67267 1.52746 7.3008 1.84804 7.0225 2.24364C6.63659 1.57785 6.04185 1.05795 5.33045 0.764519C4.61905 0.471083 3.83073 0.420498 3.08766 0.620606C2.34459 0.820713 1.68828 1.26034 1.22044 1.87134C0.752608 2.48234 0.499378 3.2306 0.500001 4.00014C0.500001 5.98564 1.6285 8.24264 3.195 8.84264C3.08661 9.02312 3.01999 9.22556 3 9.43514C3 10.2206 3.7445 10.5686 4.288 10.8231C4.588 10.9631 5 11.1556 5 11.3046C4.95927 11.4599 4.88636 11.6049 4.786 11.7301C4.75054 11.7854 4.72632 11.8472 4.71472 11.9118C4.70312 11.9764 4.70437 12.0427 4.71839 12.1069C4.73241 12.1711 4.75893 12.2319 4.79644 12.2858C4.83395 12.3397 4.88171 12.3857 4.937 12.4211C5.04866 12.4927 5.18419 12.5171 5.31377 12.4887C5.37794 12.4747 5.43871 12.4482 5.49263 12.4107C5.54654 12.3732 5.59254 12.3254 5.628 12.2701C5.84022 11.9896 5.96914 11.655 6 11.3046C6 10.5191 5.2555 10.1711 4.712 9.91714C4.412 9.77664 4 9.58414 3.9955 9.48464C4.07151 9.30553 4.16674 9.1352 4.2795 8.97664C5.4555 8.82364 6.445 7.72664 7.0055 6.37664C7.32032 7.21031 7.92658 7.90165 8.712 8.32264C8.52571 8.66406 8.46284 9.05927 8.534 9.44164C8.687 10.0966 9.2935 10.4191 9.781 10.6786C10.089 10.8426 10.4375 11.0286 10.4905 11.2126C10.5036 11.4053 10.4478 11.5964 10.333 11.7516C10.2997 11.8085 10.2779 11.8714 10.269 11.9368C10.26 12.0021 10.2641 12.0686 10.281 12.1323C10.2978 12.1961 10.3271 12.2558 10.3672 12.3082C10.4072 12.3606 10.4572 12.4045 10.5143 12.4375C10.5714 12.4705 10.6345 12.4918 10.6999 12.5003C10.7653 12.5088 10.8317 12.5043 10.8953 12.487C10.959 12.4698 11.0186 12.4401 11.0707 12.3997C11.1228 12.3593 11.1664 12.309 11.199 12.2516C11.3297 12.0621 11.4197 11.8475 11.4633 11.6214C11.5068 11.3953 11.503 11.1627 11.452 10.9381C11.3407 10.6754 11.1765 10.4383 10.9698 10.2416C10.763 10.0449 10.518 9.89273 10.25 9.79464ZM4 8.00014C2.677 8.00014 1.5 5.76314 1.5 4.00014C1.5 3.3371 1.76339 2.70121 2.23223 2.23237C2.70108 1.76353 3.33696 1.50014 4 1.50014C4.66304 1.50014 5.29893 1.76353 5.76777 2.23237C6.23661 2.70121 6.5 3.3371 6.5 4.00014C6.5 5.76314 5.323 8.00014 4 8.00014ZM7.5 4.00014C7.48493 3.73355 7.52634 3.46677 7.62151 3.21729C7.71669 2.96781 7.86349 2.74125 8.0523 2.55244C8.24111 2.36363 8.46768 2.21683 8.71716 2.12165C8.96664 2.02647 9.23341 1.98507 9.5 2.00014C9.76659 1.98507 10.0334 2.02647 10.2828 2.12165C10.5323 2.21683 10.7589 2.36363 10.9477 2.55244C11.1365 2.74125 11.2833 2.96781 11.3785 3.21729C11.4737 3.46677 11.5151 3.73355 11.5 4.00014C11.5 5.70014 10.472 7.50014 9.5 7.50014C8.528 7.50014 7.5 5.70014 7.5 4.00014Z" fill="#374957"/>
</g>
<defs>
<clipPath id="clip0_749_8613">
<rect width="12" height="12" fill="white" transform="translate(0.5 0.5)"/>
</clipPath>
</defs>
</svg>
