<svg width="11" height="13" viewBox="0 0 11 13" fill="none" xmlns="http://www.w3.org/2000/svg">
<path d="M8.49 5.18799L5.5 4.58999V2.05349C5.50472 1.69189 5.38207 1.34014 5.15354 1.05987C4.92501 0.779596 4.60515 0.588657 4.25 0.520492C4.03487 0.484129 3.8144 0.495133 3.60396 0.552738C3.39352 0.610343 3.19818 0.713162 3.03157 0.854023C2.86495 0.994884 2.73107 1.1704 2.63926 1.36832C2.54745 1.56624 2.49993 1.78181 2.5 1.99999V5.33049L1.1055 7.14999C0.696493 7.62868 0.482288 8.24357 0.505348 8.87277C0.528408 9.50197 0.78705 10.0995 1.23 10.547L2.43 11.7595C2.90087 12.232 3.53996 12.4983 4.207 12.5H8C8.6628 12.4992 9.29822 12.2356 9.76689 11.7669C10.2356 11.2982 10.4992 10.6628 10.5 9.99999V7.63949C10.4988 7.06183 10.298 6.50232 9.93179 6.05561C9.56553 5.60891 9.05622 5.30242 8.49 5.18799ZM9.5 9.99999C9.5 10.3978 9.34196 10.7793 9.06066 11.0607C8.77935 11.342 8.39782 11.5 8 11.5H4.207C3.80633 11.4988 3.42253 11.3386 3.14 11.0545L1.94 9.84049C1.67185 9.56767 1.51684 9.20352 1.50608 8.82113C1.49533 8.43875 1.62962 8.06646 1.882 7.77899L2.5 6.97249V8.99999C2.5 9.1326 2.55268 9.25978 2.64644 9.35355C2.74021 9.44731 2.86739 9.49999 3 9.49999C3.13261 9.49999 3.25978 9.44731 3.35355 9.35355C3.44732 9.25978 3.5 9.1326 3.5 8.99999V1.99999C3.49995 1.92685 3.51595 1.8546 3.54687 1.78831C3.57779 1.72203 3.62288 1.66334 3.67894 1.61638C3.73501 1.56942 3.8007 1.53533 3.87138 1.51651C3.94206 1.4977 4.016 1.49462 4.088 1.50749C4.20905 1.53712 4.31617 1.60763 4.39124 1.70712C4.4663 1.8066 4.50472 1.92895 4.5 2.05349V4.99999C4.49997 5.11526 4.53978 5.22699 4.61267 5.31628C4.68556 5.40557 4.78706 5.46694 4.9 5.48999L8.292 6.16849C8.63202 6.23694 8.93796 6.42072 9.15808 6.68877C9.3782 6.95681 9.49898 7.29265 9.5 7.63949V9.99999Z" fill="#7A13D0"/>
</svg>
