<svg width="13" height="13" viewBox="0 0 13 13" fill="none" xmlns="http://www.w3.org/2000/svg">
<g clip-path="url(#clip0_749_8603)">
<path d="M11.7499 2.48801H10.2069C10.108 2.48803 10.0113 2.51736 9.92913 2.57231C9.84693 2.62725 9.78286 2.70533 9.74502 2.79668C9.70719 2.88803 9.69729 2.98855 9.71657 3.08552C9.73585 3.1825 9.78346 3.27158 9.85336 3.34151L10.3964 3.88451L8.60336 5.67701C8.5081 5.76806 8.38139 5.81887 8.24961 5.81887C8.11783 5.81887 7.99113 5.76806 7.89586 5.67701L7.81086 5.59151C7.52517 5.31854 7.14525 5.16622 6.75011 5.16622C6.35498 5.16622 5.97506 5.31854 5.68936 5.59151L3.13936 8.14151C3.04541 8.23573 2.99273 8.36341 2.99292 8.49646C2.99311 8.62952 3.04614 8.75705 3.14036 8.85101C3.23458 8.94496 3.36226 8.99764 3.49532 8.99745C3.62838 8.99726 3.75591 8.94423 3.84986 8.85001L6.39986 6.30001C6.49507 6.20884 6.6218 6.15796 6.75361 6.15796C6.88543 6.15796 7.01215 6.20884 7.10736 6.30001L7.19236 6.38551C7.47817 6.65824 7.85805 6.81041 8.25311 6.81041C8.64817 6.81041 9.02805 6.65824 9.31386 6.38551L11.1069 4.59251L11.6499 5.13551C11.72 5.20428 11.8089 5.25086 11.9054 5.26943C12.0018 5.288 12.1017 5.27773 12.1923 5.23992C12.283 5.2021 12.3605 5.1384 12.4152 5.05679C12.4699 4.97517 12.4994 4.87925 12.4999 4.78101V3.23801C12.4999 3.03909 12.4208 2.84833 12.2802 2.70768C12.1395 2.56702 11.9488 2.48801 11.7499 2.48801Z" fill="#374957"/>
<path d="M12 11.488H3C2.60218 11.488 2.22064 11.33 1.93934 11.0487C1.65804 10.7674 1.5 10.3858 1.5 9.988V1C1.5 0.867392 1.44732 0.740215 1.35355 0.646447C1.25979 0.552678 1.13261 0.5 1 0.5C0.867392 0.5 0.740215 0.552678 0.646447 0.646447C0.552678 0.740215 0.5 0.867392 0.5 1L0.5 9.988C0.500794 10.6508 0.764441 11.2862 1.23311 11.7549C1.70178 12.2236 2.3372 12.4872 3 12.488H12C12.1326 12.488 12.2598 12.4353 12.3536 12.3416C12.4473 12.2478 12.5 12.1206 12.5 11.988C12.5 11.8554 12.4473 11.7282 12.3536 11.6344C12.2598 11.5407 12.1326 11.488 12 11.488Z" fill="#374957"/>
</g>
<defs>
<clipPath id="clip0_749_8603">
<rect width="12" height="12" fill="white" transform="translate(0.5 0.5)"/>
</clipPath>
</defs>
</svg>
