<svg width="13" height="13" viewBox="0 0 13 13" fill="none" xmlns="http://www.w3.org/2000/svg">
<g id="ic:outline-discord">
<path id="Vector" d="M10.4379 2.88707C9.7175 2.55123 8.9375 2.30748 8.125 2.16665C8.11787 2.16642 8.11079 2.16776 8.10424 2.17057C8.09768 2.17338 8.09183 2.17759 8.08708 2.1829C7.98958 2.36165 7.87583 2.59457 7.8 2.77332C6.93821 2.64332 6.06179 2.64332 5.2 2.77332C5.12416 2.58915 5.01041 2.36165 4.9075 2.1829C4.90208 2.17207 4.88583 2.16665 4.86958 2.16665C4.05708 2.30748 3.2825 2.55123 2.55666 2.88707C2.55125 2.88707 2.54583 2.89248 2.54041 2.8979C1.06708 5.10248 0.660831 7.24748 0.861247 9.37082C0.861247 9.38165 0.866664 9.39248 0.877497 9.3979C1.8525 10.1129 2.78958 10.5462 3.71583 10.8333C3.73208 10.8387 3.74833 10.8333 3.75375 10.8225C3.97041 10.5246 4.16541 10.2104 4.33333 9.87998C4.34416 9.85832 4.33333 9.83665 4.31166 9.83123C4.00291 9.71207 3.71041 9.57123 3.42333 9.40873C3.40166 9.3979 3.40166 9.3654 3.41791 9.34915C3.4775 9.30582 3.53708 9.25707 3.59666 9.21373C3.6075 9.2029 3.62375 9.2029 3.63458 9.20832C5.49791 10.0587 7.5075 10.0587 9.34916 9.20832C9.36 9.2029 9.37625 9.2029 9.38708 9.21373C9.44666 9.26248 9.50625 9.30582 9.56583 9.35457C9.5875 9.37082 9.5875 9.40332 9.56041 9.41415C9.27875 9.58207 8.98083 9.71748 8.67208 9.83665C8.65041 9.84207 8.645 9.86915 8.65041 9.8854C8.82375 10.2158 9.01875 10.53 9.23 10.8279C9.24625 10.8333 9.2625 10.8387 9.27875 10.8333C10.2104 10.5462 11.1475 10.1129 12.1225 9.3979C12.1333 9.39248 12.1387 9.38165 12.1387 9.37082C12.3771 6.91707 11.7433 4.78832 10.4596 2.8979C10.4542 2.89248 10.4487 2.88707 10.4379 2.88707ZM4.615 8.07623C4.05708 8.07623 3.59125 7.56165 3.59125 6.9279C3.59125 6.29415 4.04625 5.77957 4.615 5.77957C5.18916 5.77957 5.64416 6.29957 5.63875 6.9279C5.63875 7.56165 5.18375 8.07623 4.615 8.07623ZM8.39041 8.07623C7.8325 8.07623 7.36666 7.56165 7.36666 6.9279C7.36666 6.29415 7.82166 5.77957 8.39041 5.77957C8.96458 5.77957 9.41958 6.29957 9.41416 6.9279C9.41416 7.56165 8.96458 8.07623 8.39041 8.07623Z" fill="black"/>
</g>
</svg>
