<svg width="14" height="14" viewBox="0 0 14 14" fill="none" xmlns="http://www.w3.org/2000/svg">
<g id="&#240;&#159;&#166;&#134; icon &#34;github&#34;">
<path id="Vector" d="M6.99999 0.583336C5.31618 0.566226 3.69446 1.21836 2.49126 2.39641C1.28805 3.57446 0.601797 5.18204 0.583328 6.86584C0.589816 8.19652 1.01788 9.49091 1.80603 10.5631C2.59418 11.6353 3.70187 12.4301 4.97 12.8333C5.29083 12.8917 5.4075 12.6992 5.4075 12.53C5.4075 12.3608 5.4075 11.9875 5.4075 11.4625C3.6225 11.8417 3.24333 10.6225 3.24333 10.6225C3.1245 10.2398 2.87188 9.91261 2.53166 9.70084C1.94833 9.31583 2.57833 9.32167 2.57833 9.32167C2.77996 9.34862 2.97287 9.42088 3.14259 9.53302C3.31232 9.64516 3.45445 9.79427 3.55833 9.96917C3.73936 10.2831 4.03639 10.5134 4.3855 10.6105C4.73461 10.7075 5.10789 10.6637 5.42499 10.4883C5.45761 10.1689 5.60226 9.87131 5.83333 9.64834C4.40999 9.49084 2.91666 8.95417 2.91666 6.545C2.90393 5.91657 3.13614 5.30782 3.56416 4.8475C3.36923 4.30796 3.39224 3.71369 3.62833 3.19084C3.62833 3.19084 4.17083 3.02167 5.37833 3.8325C6.42943 3.55241 7.53556 3.55241 8.58666 3.8325C9.81166 3.02167 10.3367 3.19084 10.3367 3.19084C10.5727 3.71369 10.5958 4.30796 10.4008 4.8475C10.8388 5.29938 11.0836 5.90404 11.0833 6.53334C11.0833 8.94834 9.57833 9.47917 8.16666 9.63667C8.32123 9.78674 8.44064 9.9692 8.51628 10.1709C8.59193 10.3726 8.62194 10.5886 8.60416 10.8033V12.5242C8.60416 12.5242 8.72083 12.8917 9.04166 12.8275C10.3062 12.4217 11.4101 11.6267 12.1959 10.5561C12.9816 9.48542 13.4088 8.19384 13.4167 6.86584C13.3982 5.18204 12.7119 3.57446 11.5087 2.39641C10.3055 1.21836 8.68381 0.566226 6.99999 0.583336Z" fill="#231F20"/>
</g>
</svg>
