<svg width="14" height="13" viewBox="0 0 14 13" fill="none" xmlns="http://www.w3.org/2000/svg">
<g id="ri:instagram-fill">
<path id="Vector" d="M7.59967 2.08386C8.02534 2.08234 8.45102 2.08631 8.87658 2.09577L8.98975 2.09957C9.12042 2.1039 9.24933 2.10932 9.40508 2.11582C10.0257 2.1429 10.4492 2.2339 10.8208 2.36769C11.2058 2.50527 11.5302 2.69161 11.8545 2.99277C12.1511 3.26339 12.3806 3.59075 12.5271 3.95207C12.6712 4.29711 12.7692 4.6909 12.7983 5.26723C12.8053 5.41132 12.8112 5.53157 12.8158 5.6529L12.8193 5.75798C12.8297 6.15296 12.8342 6.54806 12.8328 6.94315L12.8333 7.34723V8.05682C12.8348 8.45209 12.8303 8.84736 12.8199 9.24252L12.8164 9.34761C12.8118 9.46894 12.8059 9.58865 12.7989 9.73327C12.7697 10.3096 12.6706 10.7029 12.5271 11.0479C12.381 11.4096 12.1515 11.7372 11.8545 12.0077C11.5628 12.2831 11.2101 12.4962 10.8208 12.6323C10.4492 12.7661 10.0257 12.8571 9.40508 12.8841C9.24933 12.8906 9.12042 12.8961 8.98975 12.9004L8.87658 12.9036C8.45103 12.9133 8.02535 12.9174 7.59967 12.9161L7.1645 12.9166H6.40092C5.97523 12.918 5.54956 12.9138 5.124 12.9042L5.01083 12.9009C4.87235 12.8963 4.73391 12.8909 4.5955 12.8847C3.97483 12.8576 3.55133 12.7655 3.17917 12.6323C2.7899 12.4965 2.4373 12.2833 2.14608 12.0077C1.84919 11.7371 1.61946 11.4095 1.47292 11.0479C1.32883 10.7029 1.23083 10.3096 1.20166 9.73327C1.19517 9.60475 1.18933 9.47619 1.18416 9.34761L1.18125 9.24252C1.17049 8.84737 1.16563 8.4521 1.16667 8.05682V6.94315C1.16504 6.54806 1.16932 6.15296 1.1795 5.75798L1.18358 5.6529C1.18825 5.53157 1.19408 5.41132 1.20108 5.26723C1.23025 4.69036 1.32825 4.29765 1.47233 3.95207C1.61897 3.59057 1.84914 3.26331 2.14667 2.99332C2.43769 2.71747 2.79006 2.50396 3.17917 2.36769C3.55133 2.2339 3.97425 2.1429 4.5955 2.11582L5.01083 2.09957L5.124 2.09686C5.54936 2.08688 5.97484 2.08236 6.40033 2.08332L7.59967 2.08386ZM7 4.79219C6.61354 4.78712 6.22986 4.85341 5.87123 4.98723C5.51261 5.12104 5.18621 5.31971 4.91099 5.57168C4.63577 5.82365 4.41723 6.1239 4.26807 6.45498C4.1189 6.78606 4.04209 7.14137 4.04209 7.50025C4.04209 7.85914 4.1189 8.21445 4.26807 8.54553C4.41723 8.87661 4.63577 9.17686 4.91099 9.42883C5.18621 9.6808 5.51261 9.87946 5.87123 10.0133C6.22986 10.1471 6.61354 10.2134 7 10.2083C7.77355 10.2083 8.51541 9.92297 9.06239 9.41506C9.60938 8.90715 9.91667 8.21828 9.91667 7.49998C9.91667 6.78169 9.60938 6.09281 9.06239 5.5849C8.51541 5.07699 7.77355 4.79219 7 4.79219ZM7 5.87552C7.23246 5.87155 7.46345 5.91062 7.67946 5.99047C7.89548 6.07032 8.0922 6.18933 8.25812 6.34057C8.42404 6.4918 8.55585 6.67222 8.64584 6.87129C8.73583 7.07036 8.7822 7.28408 8.78224 7.49998C8.78228 7.71587 8.73599 7.92961 8.64607 8.12871C8.55615 8.3278 8.42441 8.50826 8.25854 8.65955C8.09267 8.81083 7.89599 8.92991 7.68001 9.00983C7.46402 9.08974 7.23305 9.12889 7.00058 9.12498C6.53645 9.12498 6.09133 8.95378 5.76314 8.64903C5.43496 8.34429 5.25058 7.93096 5.25058 7.49998C5.25058 7.06901 5.43496 6.65568 5.76314 6.35093C6.09133 6.04619 6.53645 5.87498 7.00058 5.87498L7 5.87552ZM10.0625 3.97969C9.87431 3.98668 9.69634 4.06102 9.56585 4.18713C9.43537 4.31324 9.36249 4.48135 9.36249 4.65623C9.36249 4.83112 9.43537 4.99922 9.56585 5.12533C9.69634 5.25144 9.87431 5.32578 10.0625 5.33277C10.2559 5.33277 10.4414 5.26144 10.5781 5.13446C10.7148 5.00748 10.7917 4.83526 10.7917 4.65569C10.7917 4.47612 10.7148 4.3039 10.5781 4.17692C10.4414 4.04994 10.2559 3.97861 10.0625 3.97861V3.97969Z" fill="black"/>
</g>
</svg>
